<svg xmlns="http://www.w3.org/2000/svg" width="53.333" height="68.162" viewBox="0 0 1401 1791" shape-rendering="geometricPrecision" text-rendering="geometricPrecision" image-rendering="optimizeQuality" fill-rule="evenodd" clip-rule="evenodd"><path d="M682 1658c149 5 216 77 396-37 225-141 291-443 106-668-69-84-142-191-228-263 70 194 265 356 205 618-66 288-277 324-479 350zm147-683c-146 105-91 17-179 198-40-122-83-135-183-198 83-68 116-27 187-209 33 122 69 144 140 187l35 22zm22-605c103 163 474 506 531 726 98 379-201 701-549 695-341-7-625-335-524-704 22-84 59-144 105-202l437-515zM545 513c-64 51-239 81-267 303C224 610 172 602 0 522c163-68 232-103 273-292 79 163 92 233 272 283zm332-310c-105 38-132 68-183 176l-70-109c-27-28-82-50-130-70 152-98 102-43 198-200 18 50 27 79 65 119 6 6 33 29 49 40l71 44z" fill="#fe8b00"/></svg>