<svg xmlns="http://www.w3.org/2000/svg" width="80.001" height="54.727" viewBox="0 0 6261 4283" shape-rendering="geometricPrecision" text-rendering="geometricPrecision" image-rendering="optimizeQuality" fill-rule="evenodd" clip-rule="evenodd"><path d="M1188 232C496-31 473-116 341 221c-445 1133-439 876-70 1349 49 63 92 109 145 175 39 48 103 142 152 160 32 79 140 177 118 263-26 108-117 157-18 270 17 118 221 157 349 207 138 55 250 100 388 152 261 99 534 199 781 300 145 59 1064 448 1189 420 153-35 148-192 225-317 40-37 1557-269 1826-313 167-28 533-31 480-227-81-138-240-116-424-138-139-18-331-43-481-64-66-17-344-52-420-57-142-4-378-79-516-54-18-12-12-12-45-23l-60-9c-27-60 35-155 49-226 10-49 3-86-14-123-31-72-24-62-76-83l-89-42c-331-159-2153-806-2296-901 38-142 198-391 99-511-58-70-333-154-445-197zm1457 564c-91-34-293-147-383-76-50 40-146 272-82 340 37 39 616 253 712 290 130 51 236 116 378 94 217-404 108-375-625-648zm3205 2254c-79 108-347 522-389 650-102 308 103 590 401 583 279-6 486-311 363-605l-375-628zM830 1722l449-1082-638-254-282 745 471 591z" fill="#fe8b00"/></svg>