<svg xmlns="http://www.w3.org/2000/svg" width="59.61" height="80" viewBox="0 0 90 121" shape-rendering="geometricPrecision" text-rendering="geometricPrecision" image-rendering="optimizeQuality" fill-rule="evenodd" clip-rule="evenodd"><path d="M28 34c1 1 0 2 0 2-1 0-1 1-2 1v-2h1v-1c-1-1-1-1-2-1-2 0-2 0-2-1h2l2 1 1 1zm11 4h1v1c2 2 1 2 0 4-1 0-1-1-1-1 2-2 0-3-2-4h-1v-1h2c1 1 1 0 1 1zm-12 3c1 0 1-1 1 0 3 0 1 0 3 1v1c-1 0-3 1-4 0v-2zm26 11c-1 1-1 1-2 1v1l-1 1-1 1v1h-1l-1 1c-1 0-1 0-1 1h-2c-1 0 0 0 0 0l-2 1h-4c-1 0-2 0-3-1s-1 0-1-1c-1 0 0-1 0-2 1-1 2-1 3-1 1 1 4 0 6 0 0 1 1 1 1 1h1c0-1-1-1 0-1-1 0-1 0-1-1l1-1c1 0 1-1 1-1 1 0 1 0 2 1h1v-1h-1v-1h-1c0-1 1-1 1-2s1-1 1-1h2c1 0 1 1 2 0h-1l-1-1h-2v-2c0-1-1 0-1-2l2-2 1-1v-2l1-1v-1l1-1v-1c-1 0-1 0-1-1h-5c0 1-1 0-2 1h-3c-1 0-1-1-2-1l-1-1c-1-1-2-1-3-1v-1c-2-1-1 0-2-1h-1c-1 0-1 0-1-1-2 0-3 0-3-1s0-1-1-1v-4c-1 0-1 0-1-1s0-1-1-2c0-1 0-1-1 0-1 0-2 1-3 2 0 0 0 1-1 1 0 1 0 1-1 1v1c-1 1 0 1 0 1l-1 2c-1 1-2 0-2 1-2 1-2 0-2 1-1 0-1 0-2-1v-1l-1-1-1-1c0-1-1-1-1-2H9l1 1v1l1 1v1c1 0 2 1 2 1v3h-1v1l-1 1c-1 0-1 0-2-1H8l-1-1H6c0 1 1 1 1 1l2 1 1 1h1v4H7c0 1 2 0 3 0v1h1s0 1 1 1v1c0 1 0 0 1 2l1 1c0 1 0 1 1 1v2c1 0 1 1 1 1 0 1 0 1-1 1v1c-1 1-1 1-1 2v2c-1 1-1 0-1 0 0 1 1 1 0 2 0 1 0 2-1 2h-2l-3-1H3v1c-1 0-2 1-2 2-1 1-1 1-1 2v6c0 1 0 1 1 2v3l1 3v2l1 4h1c0 1 1 2 1 2 0 1 1 2 1 2 1 1 1 0 1 1h1c1 1 3 1 4 1 0 0 1-1 2-1v-1l1-2v-4c-1 0-1 0-1-1v-1h-1l-1-2c-2-1-1-1-2-2s-1-1-1-2h1l3 3 1 1c0 1 0 0 1 1v2l1 1h1c1 2 1 1 2 2 0 1 1 1 1 1l1 1 1 1 2 1v1c3 1 2 1 3 2s0 1 1 1l1 1c0 1 0 1 1 1 0 0 0 1 1 1v1c1 1 0 1 1 1 1 1 1 2 1 2 1 2 1 1 1 2l1 2v4c1 0 1 0 1 1l-1 1s1 0 0 1v1l-1 1c-1 0-1 1-2 1l-1 1c-1 1-2 0-3 2 0 1-1 1-1 2v3c0 1 0 0 1 1h1v1h5c1 0 0 0 2-1h1l1-1c1-1 1 0 1-1h1v-1l1-1 1-2s0-1 1-1v-2l1-3c0-2 1-3 0-4v-8c-1-1 0-1-1-2v-3s0 1 0 0v-2c-1 0-1-1-1-1v-1l-1-1v-2l-1-1v-2c-1 0-1 0-1-1v-1l-1-1c-1-1 0-1-1-2 0 0-1 0-1-1 1 0 2 1 2 2l2 3c1 1 1 2 1 2 0 1 0 2 1 2v2c1 0 3 0 4 1h2c1 0 1 0 1-1h4c2-1 1-1 2-1s3-1 3-1h1l1 1v2c1 2 1 1 2 2v1c1 0 1 1 1 1v1l-2 2-1 1-1 1c-1 1-1 2-2 2v6c0 1 0 1 1 2 0 0 1 0 2 1h4c1-1 1 0 1-1l1-1v-1c0-1 0-1 1-1v-2s0 1 0 0v-1l1-1c1-1 0 0 1 0l1-1h2c0-1-1-1 1 0 0 0 0-1 1-1h1v-3c0-1 0-1-1-2l-1-1h-1v-1c-1 0-2-1-3-1v-1h-1c-1 0-3-2-3-3h-1v-1c-1-1 0-1-1-1v-1c1 0 0 1 1 1l1 1 2 2 2 1s1 1 2 1v1h1c1 1 1 0 2 2 1 1 2 3 2 3v1c1 1 1 3 1 3v1h-1v2s-1 2-1 3c-1 2-1 1-2 2s-2 1-3 1c-1 1-1 0-2 1h-2c-1 1-1 1-2 1 0 0 0 1-1 1h-1v1c-1 0-1 1-1 1l-1 1v4h1c0 1-1 1 0 1 0 1 1 1 2 2h4c1 0 1 0 1-1h2v-1h1c1-1 1 0 2-1v-1c1 0 2 0 2-1l1-1h1c1 0 0-1 1-1l1-1c1-1 1-1 1-2h1l1-1 2-2c0-1 1-1 1-2h1v-1l1-1c1-1 1-2 2-3 0-1 0-1 1-1v-7c0-1-1-2-1-3-1-2-1-1-1-2s0-1-1-1v-3l-1-1s1-1 0-1c0-1 1-1 1-2s0 1 0 0v-2c0-1 1-1 1-1v-3s1-1 1-2V59c-1-1 0-1-1-2v-1c-1-1-1-2-1-2 0-1-1-2-1-2s0-1-1-1c-1-1-1-1-1-2-1-1 0-1 1-2 0-1 0-1 1-1 0-1 0-1 1-1 0-1 0-2 1-2 0-1 0-2 1-2l1-3v-7c0-1 0-1-1-2l-1-2v-2c-1-1-1 0-2-2l-1-1h-1c0-1 0-1-1-1l-1-1c-1-1 0-1-2-1l-1-1h-1c-1-1-7-3-8-3h-2c-2 0-4 0-7-1h-2c-1 0 0 0 0 0h-2c0-1-2-1-2-1l-1-1v-2s0-1 1-1c0 0 1 0 1-1h1s2-1 3-1 1 0 1-1c1 0 1 0 1-1V3l-1-1c-1-1-1-1-2-1h-1V0h-3l-1 1h-2c0 1 0 1-1 1 0 0 1 0 0 0-1 1-1 1-2 1 0 1 0 1-1 2l-1 3v3c0 1 0 0 0 0v3l2 2v1l2 2c1 1 3 1 3 1h2s0 1 1 1h7c1 1 1 0 2 0s0 0 1 1h4l2 1h2c0 1 1 1 2 2l1 1h1l1 1c0 1 1 1 1 2 0 0 0 1 1 1v2c0 1 1 1 0 3v3c-1 0-1 0-1 1 0 0-1 0-1 2l-1 1-1 1h-1c-1 1 0 1-1 1H64l-1 1h-2l-1 1h-1c-1 1-1 0-1 1l-1 1c-1 0-1 1-1 1l-1 1h-1v1s-1 0-1 1zm8 27v-1c-1 0-1 0-1-1v-6l1-1v7c0 1 1 0 0 2z" fill="#fff"/></svg>