<svg xmlns="http://www.w3.org/2000/svg" width="53.334" height="64.914" viewBox="0 0 1401 1705" shape-rendering="geometricPrecision" text-rendering="geometricPrecision" image-rendering="optimizeQuality" fill-rule="evenodd" clip-rule="evenodd"><path d="M313 879c-44-240 125-427 316-461 235-43 424 124 459 313 43 238-121 424-313 461-238 47-428-126-462-313zm376 826h23c23-17 52-29 77-44 68-43 88-62 149-109 25-19 44-42 65-63 58-58 69-67 120-138 38-52 66-98 98-160 61-115 107-240 136-380 21-101 65-380 33-473-13-23-423-211-507-252-48-23-134-61-171-86h-23C588 68 34 298 11 338c-31 90 11 369 31 468 55 262 167 495 352 679 20 20 42 47 65 64 46 37 96 78 149 109 27 15 58 29 81 47zM490 766c-16 22-36 34-27 73 6 24 27 40 43 56 120 117 114 140 234 20 31-31 188-181 197-206 23-67-49-113-99-60-64 67-140 134-198 201-77-27-47-94-150-84z" fill="#fe8b00"/></svg>