<svg xmlns="http://www.w3.org/2000/svg" width="53.334" height="34.804" viewBox="0 0 1401 914" shape-rendering="geometricPrecision" text-rendering="geometricPrecision" image-rendering="optimizeQuality" fill-rule="evenodd" clip-rule="evenodd"><path d="M1371 768H907c0-35-22-87-45-112-12-13-15-18-35-32-63-43-141-44-204-1-27 19-47 41-62 72-9 18-19 48-19 73H0l3-47h143c-16-142-23-438 9-625 281-121 970-136 1235 4 32 234-16 668-19 668zm-588 15v-7c0-38-45-69-84-50-29 14-43 46-30 77 13 27 44 43 76 31 20-8 38-28 38-51zm-53 131h-11c-87 0-159-93-120-189 18-42 68-80 113-80 49 0 74 6 110 42 17 17 28 39 34 63 14 62-17 123-73 151-13 7-34 13-53 13zm514-719H766v199h478V195zm-724 0H305v199h215V195zM76 819v-5c0-25-28-45-54-33-18 9-27 30-19 50 8 18 29 28 49 20 13-5 24-18 24-32z" fill="#fe8b00"/></svg>