<?xml version="1.0" encoding="UTF-8"?>
<!DOCTYPE svg PUBLIC "-//W3C//DTD SVG 1.1//EN" "http://www.w3.org/Graphics/SVG/1.1/DTD/svg11.dtd">
<!-- Creator: CorelDRAW X8 -->
<svg xmlns="http://www.w3.org/2000/svg" xml:space="preserve" width="17.639mm" height="14.6219mm" version="1.1" style="shape-rendering:geometricPrecision; text-rendering:geometricPrecision; image-rendering:optimizeQuality; fill-rule:evenodd; clip-rule:evenodd"
viewBox="0 0 2912 2414"
 xmlns:xlink="http://www.w3.org/1999/xlink">
 <defs>
  <style type="text/css">
   <![CDATA[
    .fil0 {fill:#FE8B00}
   ]]>
  </style>
 </defs>
 <g id="Слой_x0020_1">
  <metadata id="CorelCorpID_0Corel-Layer"/>
  <path class="fil0" d="M163 1211c-440,-36 147,771 166,786 312,-47 25,-114 373,-364 -20,-176 -125,-295 -190,-430 -252,66 -122,26 -349,8zm2097 894c0,-279 -28,-199 86,-385 62,-103 75,-209 52,-350 -122,6 -654,272 -722,357 134,147 76,86 268,187 54,369 -38,470 245,493 165,14 333,2 713,2l10 -304 -652 0zm623 -1149c92,-143 -180,-609 -248,-757 -160,-348 -367,-159 -633,-38 -194,88 -1347,607 -1397,692 -82,140 178,609 247,755 158,337 201,258 643,41 162,-80 1368,-663 1388,-693zm-2121 31c153,32 692,-258 879,-345 143,-66 290,-131 432,-192 130,-56 357,-116 393,-243 -119,-84 -729,250 -877,319 -286,134 -797,287 -827,461z"/>
 </g>
</svg>
