<?xml version="1.0" encoding="UTF-8"?>
<!DOCTYPE svg PUBLIC "-//W3C//DTD SVG 1.1//EN" "http://www.w3.org/Graphics/SVG/1.1/DTD/svg11.dtd">
<!-- Creator: CorelDRAW X8 -->
<svg xmlns="http://www.w3.org/2000/svg" xml:space="preserve" width="4.8344mm" height="7.2572mm" version="1.1" style="shape-rendering:geometricPrecision; text-rendering:geometricPrecision; image-rendering:optimizeQuality; fill-rule:evenodd; clip-rule:evenodd"
viewBox="0 0 9 13"
 xmlns:xlink="http://www.w3.org/1999/xlink">
 <defs>
  <style type="text/css">
   <![CDATA[
    .fil0 {fill:#FE8B00;fill-rule:nonzero}
   ]]>
  </style>
 </defs>
 <g id="Слой_x0020_1">
  <metadata id="CorelCorpID_0Corel-Layer"/>
  <path class="fil0" d="M6 4c0,2 -1,2 -2,2 -1,0 -2,0 -2,-2 0,-1 1,-2 2,-2 1,0 2,1 2,2zm3 0c0,-2 -2,-4 -5,-4 -2,0 -4,2 -4,4 0,1 0,1 0,2l3 6c1,1 1,1 1,1 1,0 1,0 1,-1l3 -6c1,-1 1,-1 1,-2z"/>
 </g>
</svg>
