<?xml version="1.0" encoding="UTF-8"?>
<!DOCTYPE svg PUBLIC "-//W3C//DTD SVG 1.1//EN" "http://www.w3.org/Graphics/SVG/1.1/DTD/svg11.dtd">
<!-- Creator: CorelDRAW X8 -->
<svg xmlns="http://www.w3.org/2000/svg" xml:space="preserve" width="15.7717mm" height="21.1666mm" version="1.1" style="shape-rendering:geometricPrecision; text-rendering:geometricPrecision; image-rendering:optimizeQuality; fill-rule:evenodd; clip-rule:evenodd"
viewBox="0 0 90 121"
 xmlns:xlink="http://www.w3.org/1999/xlink">
 <defs>
  <style type="text/css">
   <![CDATA[
    .fil0 {fill:white}
   ]]>
  </style>
 </defs>
 <g id="Слой_x0020_1">
  <metadata id="CorelCorpID_0Corel-Layer"/>
  <path class="fil0" d="M28 34c0,0 0,0 0,0 0,0 0,0 0,0 1,1 0,2 0,2 -1,0 -1,1 -2,1 0,0 0,-1 0,-1 0,0 0,-1 0,-1l1 0c0,0 0,0 0,0 0,-1 0,-1 0,-1l0 0c-1,-1 -1,-1 -2,-1 -2,0 -2,0 -2,-1 0,0 0,0 1,0 0,0 0,0 1,0 0,0 2,1 2,1 1,1 1,1 1,1zm11 4c0,0 1,0 1,0l0 1c2,2 1,2 0,4 -1,0 -1,-1 -1,-1 2,-2 0,-3 -2,-4 -1,0 -1,0 -1,0 0,0 0,0 0,-1 1,0 2,0 2,0 1,1 1,0 1,1zm-12 3c1,0 1,-1 1,0 3,0 1,0 3,1 0,1 0,1 0,1 -1,0 -3,1 -4,0 0,-1 0,-1 0,-2zm26 11c0,0 0,0 0,0 -1,1 -1,1 -2,1 0,1 0,1 0,1 -1,1 -1,1 -1,1l-1 1c0,0 0,0 0,1l-1 0c0,0 0,0 -1,1 -1,0 -1,0 -1,1 -1,0 -1,0 -1,0 -1,0 -1,0 -1,0 -1,0 0,0 0,0l-2 1c0,0 0,0 -1,0 0,0 0,0 -1,0 -1,0 -1,0 -2,0 -1,0 -2,0 -3,-1 -1,-1 -1,0 -1,-1 -1,0 0,-1 0,-2 0,0 0,0 0,0 1,-1 2,-1 3,-1 1,1 4,0 6,0 0,0 0,0 0,0 0,1 1,1 1,1l1 0c0,-1 -1,-1 0,-1 -1,0 -1,0 -1,-1 0,0 0,0 0,0l1 -1c0,0 0,0 0,0 1,0 1,-1 1,-1 1,0 1,0 2,1 1,0 1,0 1,0 0,-1 0,-1 0,-1 0,0 0,0 -1,0 0,-1 0,-1 0,-1 -1,0 -1,0 -1,0 0,-1 1,-1 1,-2 0,-1 1,-1 1,-1 0,0 2,0 2,0 1,0 1,1 2,0 -1,0 -1,0 -1,0l-1 -1c-1,0 0,0 -1,0 -1,0 -1,0 -1,0l0 -2c0,-1 -1,0 -1,-2 1,-1 2,-2 2,-2 0,0 1,-1 1,-1 0,-1 0,-1 0,-1 0,0 0,0 0,-1 0,0 0,0 0,0l1 -1c0,-1 0,0 0,-1l1 -1c0,-1 0,-1 0,-1 -1,0 -1,0 -1,-1 0,0 0,0 0,0 -2,0 -3,0 -5,0 0,1 -1,0 -2,1 -1,0 -3,0 -3,0 0,0 0,0 0,0 -1,0 -1,-1 -2,-1l-1 -1c0,0 0,0 0,0 -1,-1 -2,-1 -3,-1 0,0 0,-1 0,-1 -2,-1 -1,0 -2,-1 -1,0 -1,0 -1,0 -1,0 -1,0 -1,-1 -2,0 -3,0 -3,-1 0,-1 0,-1 -1,-1 0,0 0,0 0,-1 0,-1 0,-1 0,-2 0,0 0,-1 0,-1 -1,0 -1,0 -1,-1 0,-1 0,-1 -1,-2 0,0 0,0 0,0 0,-1 0,-1 -1,0 -1,0 -2,1 -3,2 0,0 0,1 -1,1 0,1 0,1 -1,1 0,1 0,1 0,1 -1,1 0,1 0,1l-1 2c-1,1 -2,0 -2,1 -2,1 -2,0 -2,1 -1,0 -1,0 -2,-1 0,-1 0,-1 0,-1l-1 -1c-1,-1 0,0 -1,-1 0,-1 -1,-1 -1,-2 -1,0 -1,0 -1,0l1 1c0,0 0,0 0,0l0 1c1,1 1,1 1,1 0,0 0,0 0,1 1,0 2,1 2,1 0,1 0,1 0,2 0,0 0,0 0,1 0,0 0,0 -1,0 0,1 0,1 0,1 0,0 0,0 0,0 0,0 -1,1 -1,1 -1,0 -1,0 -2,-1 0,0 0,0 -1,0l0 0c-1,-1 -1,-1 -1,-1 -1,0 -1,0 -1,0 0,0 0,0 0,0 0,1 1,1 1,1l2 1c0,0 0,0 0,0 0,0 0,0 1,1 0,0 0,0 1,0 0,1 0,1 0,2 0,1 0,2 0,2 -2,0 -3,0 -4,0 0,1 2,0 3,0 0,1 0,1 0,1 1,0 1,0 1,0 0,0 0,1 1,1 0,0 0,0 0,1l0 0c0,1 0,0 1,2 0,0 0,0 1,1 0,0 0,0 0,0 0,1 0,1 1,1 0,1 0,1 0,1 0,0 0,1 0,1 1,0 1,1 1,1 0,1 0,1 -1,1 0,0 0,0 0,1 -1,1 -1,1 -1,2l0 1c0,0 0,0 0,1 -1,1 -1,0 -1,0 0,1 1,1 0,2 0,0 0,0 0,0 0,1 0,2 -1,2 0,0 -2,0 -2,0l-3 -1c-1,0 -3,0 -4,0 0,0 0,0 0,1 -1,0 -2,1 -2,2 -1,1 -1,1 -1,2 0,1 0,1 0,2 0,1 0,2 0,3 0,0 0,0 0,1 0,1 0,1 1,2 0,0 0,0 0,1 0,0 0,1 0,1 0,1 0,1 0,1l1 3c0,1 0,0 0,2 0,0 0,0 0,0l1 4c1,0 1,0 1,0 0,1 1,2 1,2 0,1 1,2 1,2 1,1 1,0 1,1 1,0 0,0 1,0 1,1 3,1 4,1 0,0 1,-1 2,-1 0,-1 0,0 0,-1l0 0 1 -2c0,-2 0,-3 0,-4 -1,0 -1,0 -1,-1 0,0 0,-1 0,-1 0,0 0,0 -1,0l-1 -2c-2,-1 -1,-1 -2,-2 0,0 0,0 0,0 -1,-1 -1,-1 -1,-2 1,0 1,0 1,0 0,0 3,3 3,3 0,0 1,1 1,1 0,1 0,0 1,1 0,1 0,1 0,1 0,0 0,0 0,0 0,0 0,0 0,0 0,0 0,1 0,1l1 1c0,0 1,0 1,0 1,2 1,1 2,2 0,1 1,1 1,1l1 1c0,0 0,0 1,1l2 1c0,1 0,1 0,1 3,1 2,1 3,2 1,1 0,1 1,1l1 1c0,1 0,1 1,1 0,0 0,1 1,1 0,1 0,1 0,1 0,0 0,0 0,0 1,1 0,1 1,1 1,1 1,2 1,2 0,0 0,0 0,0 1,2 1,1 1,2l1 2c0,1 0,2 0,4 1,0 1,0 1,1 0,0 0,0 -1,1 0,0 1,0 0,1 0,0 0,0 0,1 0,0 -1,1 -1,1 -1,0 -1,1 -2,1 0,0 -1,1 -1,1 -1,1 -2,0 -3,2 0,1 -1,1 -1,2 0,1 0,2 0,3 0,1 0,0 1,1 0,0 0,0 0,0l1 0c0,0 0,0 0,0 0,0 0,0 0,0 0,0 0,0 0,1 0,0 0,0 1,0 0,0 0,0 0,0l4 0c1,0 0,0 2,-1 0,0 0,0 1,0l1 -1c1,-1 1,0 1,-1l1 0c0,-1 0,-1 0,-1 1,-1 0,0 1,-1 0,0 0,0 0,0 0,0 0,0 0,0l1 -2c0,0 0,0 0,0 0,0 0,-1 1,-1 0,0 0,0 0,-1 0,0 0,0 0,-1l1 -3c0,-2 1,-3 0,-4 0,-1 0,-1 0,-1 0,-2 0,-4 0,-5 0,-1 0,-1 0,-1 0,-1 0,-1 0,-1 -1,-1 0,-1 -1,-2 0,-1 0,-2 0,-3 0,0 0,1 0,0 0,0 0,0 0,-1 0,0 0,0 0,-1 -1,0 -1,-1 -1,-1 0,-1 0,-1 0,-1 -1,-1 0,0 -1,-1 0,-1 0,-1 0,-2l-1 -1c0,-2 0,-1 0,-2 0,0 0,0 0,0 -1,0 -1,0 -1,-1 0,0 0,0 0,0 0,-1 0,0 0,-1 0,0 -1,-1 -1,-1 0,0 0,0 0,0 -1,-1 0,-1 -1,-2 0,0 -1,0 -1,-1 1,0 2,1 2,2 0,0 0,0 0,0 0,0 2,3 2,3 1,1 1,2 1,2 0,1 0,2 1,2 0,1 0,1 0,2 0,0 0,0 0,0 1,0 3,0 4,1 1,0 0,0 2,0 1,0 1,0 1,-1 1,0 1,0 2,0 0,0 1,0 1,0 1,0 1,0 1,0 2,-1 1,-1 2,-1 1,0 3,-1 3,-1 1,0 1,0 1,0 0,0 0,0 0,0 1,1 0,0 1,1 0,1 0,0 0,1 0,1 0,0 0,1 1,2 1,1 2,2 0,0 0,1 0,1 1,0 1,1 1,1 0,1 0,1 0,1 -1,1 -1,1 -2,2 0,0 0,0 0,0 -1,1 -1,1 -1,1 0,0 -1,1 -1,1 -1,1 -1,2 -2,2 0,1 0,2 0,3 0,1 0,2 0,3 0,1 0,1 1,2 0,0 1,0 2,1 1,0 4,0 4,0 1,-1 1,0 1,-1 0,0 0,0 0,0 1,-1 1,-1 1,-1 0,0 0,0 0,0 0,-1 0,0 0,-1 0,0 0,0 0,0 0,0 0,0 0,0 0,-1 0,-1 1,-1 0,0 0,-1 0,-1 0,0 0,0 0,0l0 -1c0,0 0,1 0,0 0,0 0,0 0,0l0 -1c0,0 1,-1 1,-1 0,0 0,0 0,0 1,-1 0,0 1,0 1,-1 0,0 1,-1 1,0 1,0 2,0 0,-1 -1,-1 1,0 0,0 0,-1 1,-1 0,0 0,0 1,0 0,-1 0,0 0,-2 0,-1 0,-1 0,-1 0,-1 0,-1 -1,-2l-1 -1c0,0 0,0 -1,0 0,0 0,0 0,0l0 -1c-1,0 -2,-1 -3,-1 0,0 0,0 0,-1 0,0 -1,0 -1,0 -1,0 -3,-2 -3,-3 0,0 0,0 -1,0 0,-1 0,-1 0,-1 -1,-1 0,-1 -1,-1 0,0 0,0 0,-1 1,0 0,1 1,1 1,1 1,1 1,1l2 2c0,0 0,0 0,0l0 0 2 1c0,0 1,1 2,1 0,0 0,0 0,1 1,0 1,0 1,0 1,1 1,0 2,2 0,0 0,0 0,0l0 0c1,1 2,3 2,3 0,1 0,1 0,1 1,1 1,3 1,3 0,0 0,1 0,1 -1,0 -1,0 -1,0 0,1 0,1 0,2 0,0 -1,2 -1,3 -1,2 -1,1 -2,2 -1,1 -2,1 -3,1 -1,1 -1,0 -2,1 0,0 0,0 -1,0 0,0 0,0 -1,0 0,0 0,0 0,0 -1,1 -1,1 -2,1 0,0 0,1 -1,1 -1,0 0,0 -1,0 0,1 0,1 0,1 -1,0 -1,1 -1,1 -1,1 0,0 -1,1 0,1 0,2 0,3 0,1 0,1 0,1 1,0 0,0 1,0 0,1 -1,1 0,1 0,0 0,0 0,0 0,0 0,0 0,0 0,1 1,1 2,2 0,0 0,0 0,0l1 0c1,0 3,0 3,0 1,0 1,0 1,-1 0,0 0,0 0,0 1,0 0,0 2,0l0 -1c1,0 1,0 1,0 1,-1 1,0 2,-1 0,-1 0,-1 0,-1 1,0 2,0 2,-1 0,0 0,0 0,0l1 -1c1,0 1,0 1,0 1,0 0,-1 1,-1 0,0 0,0 1,-1 0,0 0,0 0,0 1,-1 1,-1 1,-2 1,0 1,0 1,0 1,-1 0,0 1,-1 0,0 1,-1 2,-2 0,-1 1,-1 1,-2 0,0 1,0 1,0 0,-1 0,-1 0,-1 0,0 1,-1 1,-1 0,0 0,0 0,0 1,-1 1,-2 2,-3 0,0 0,0 0,0 0,-1 0,-1 1,-1 0,-1 0,-1 0,-1 0,-1 0,-1 0,-2 0,-2 0,-2 0,-3 0,0 0,-1 0,-1 0,-1 -1,-2 -1,-3l0 0c-1,-2 -1,-1 -1,-2 0,-1 0,-1 -1,-1 0,-1 0,-2 0,-3 0,0 0,0 -1,-1 0,0 1,-1 0,-1 0,-1 1,-1 1,-2 0,-1 0,1 0,0l0 0c0,-1 0,-2 0,-2 0,-1 1,-1 1,-1l0 -3c0,0 1,-1 1,-2 0,0 0,0 0,0 0,-1 0,-1 0,-2 0,0 0,0 0,-1 0,-2 0,-2 0,-3 0,0 0,-1 0,-1 0,-2 0,-2 0,-3 0,-1 0,-1 0,-1 0,-2 0,-1 0,-1 -1,-1 0,-1 -1,-2 0,0 0,0 0,-1 0,0 0,0 0,0 -1,-1 -1,-2 -1,-2 0,-1 -1,-2 -1,-2 0,0 0,-1 -1,-1l0 0c-1,-1 -1,-1 -1,-2 -1,-1 0,-1 1,-2 0,0 0,0 0,0l0 0c0,-1 0,-1 1,-1 0,-1 0,-1 1,-1 0,-1 0,-2 1,-2 0,-1 0,-2 1,-2l1 -3c0,-2 0,-5 0,-7 0,0 0,0 0,0 0,-1 0,-1 -1,-2l-1 -2c0,-1 0,0 0,-1 0,-1 0,0 0,-1 -1,-1 -1,0 -2,-2l0 0c0,0 0,0 -1,-1l-1 0c0,-1 0,-1 -1,-1l-1 -1c-1,-1 0,-1 -2,-1l-1 -1c0,0 -1,0 -1,0 -1,-1 -7,-3 -8,-3 -1,0 -1,0 -2,0 -2,0 -4,0 -7,-1 0,0 0,0 -1,0 0,0 -1,0 -1,0 -1,0 0,0 0,0 -1,0 -1,0 -1,0 -1,0 0,0 -1,0 0,-1 -2,-1 -2,-1l-1 -1c0,-1 0,0 0,-1 0,0 0,-1 0,-1 0,0 0,-1 1,-1 0,0 1,0 1,-1l1 0c0,0 2,-1 3,-1 1,0 1,0 1,-1 1,0 1,0 1,-1l0 -2c0,0 0,0 -1,-1 -1,-1 -1,-1 -2,-1 0,0 0,0 -1,0 0,0 0,-1 0,-1l-1 0c0,0 0,0 -1,0 0,0 -1,0 -1,0 -1,1 0,0 -1,1 -1,0 -1,0 -2,0 0,1 0,1 -1,1 0,0 1,0 0,0 -1,1 -1,1 -2,1 0,1 0,1 -1,2 0,0 0,0 0,0l-1 3c0,0 0,3 0,3 0,1 0,0 0,0 0,1 0,3 0,3 1,1 1,1 2,2 0,0 0,0 0,1 1,1 1,1 2,2 1,1 3,1 3,1 1,0 1,0 2,0 0,0 0,1 1,1 0,0 1,0 2,0 0,0 1,0 2,0l1 0c1,0 1,0 2,0 1,1 1,0 2,0 1,0 0,0 1,1 0,0 0,0 1,0 1,0 1,0 2,0 0,0 0,0 1,0l2 1 1 0c1,0 0,0 1,0 0,1 1,1 2,2l1 1c0,0 0,0 1,0 0,0 0,0 1,1 0,1 1,1 1,2 0,0 0,1 1,1 0,1 0,1 0,2 0,1 1,1 0,3 0,0 0,0 0,1 0,0 0,0 0,1 0,0 0,1 0,1 -1,0 -1,0 -1,1 0,0 -1,0 -1,2 0,0 -1,1 -1,1 -1,1 -1,1 -1,1l-1 0c-1,1 0,1 -1,1 -1,0 -1,0 -2,0l-6 0c0,0 0,0 -1,0 0,0 -1,0 -1,0 -1,0 -1,0 -2,0l-1 1c-1,0 -2,0 -2,0 0,0 0,0 -1,1 -1,0 -1,0 -1,0 -1,1 -1,0 -1,1 0,0 0,0 0,0l-1 1c-1,0 -1,1 -1,1l-1 1c0,0 0,0 -1,0 0,0 0,1 0,1 0,0 -1,0 -1,1zm8 27c0,0 0,-1 0,-1 -1,0 -1,0 -1,-1 0,-1 0,0 0,-2 0,-2 0,-2 0,-2 0,-1 0,-1 0,-1 0,0 0,-1 0,-1 0,0 1,-1 1,-1l0 2c0,2 0,1 0,2 0,1 0,2 0,3 0,1 1,0 0,2z"/>
 </g>
</svg>
