<?xml version="1.0" encoding="UTF-8"?>
<!DOCTYPE svg PUBLIC "-//W3C//DTD SVG 1.1//EN" "http://www.w3.org/Graphics/SVG/1.1/DTD/svg11.dtd">
<!-- Creator: CorelDRAW X8 -->
<svg xmlns="http://www.w3.org/2000/svg" xml:space="preserve" width="14.1112mm" height="9.2086mm" version="1.1" style="shape-rendering:geometricPrecision; text-rendering:geometricPrecision; image-rendering:optimizeQuality; fill-rule:evenodd; clip-rule:evenodd"
viewBox="0 0 1401 914"
 xmlns:xlink="http://www.w3.org/1999/xlink">
 <defs>
  <style type="text/css">
   <![CDATA[
    .fil0 {fill:#FE8B00}
   ]]>
  </style>
 </defs>
 <g id="Слой_x0020_1">
  <metadata id="CorelCorpID_0Corel-Layer"/>
  <path class="fil0" d="M1371 768l-464 0c0,-35 -22,-87 -45,-112 -12,-13 -15,-18 -35,-32 -63,-43 -141,-44 -204,-1 -27,19 -47,41 -62,72 -9,18 -19,48 -19,73l-542 0 3 -47 143 0c-16,-142 -23,-438 9,-625 281,-121 970,-136 1235,4 32,234 -16,668 -19,668zm-588 15l0 -7c0,-38 -45,-69 -84,-50 -29,14 -43,46 -30,77 13,27 44,43 76,31 20,-8 38,-28 38,-51zm-53 131l-11 0c-87,0 -159,-93 -120,-189 18,-42 68,-80 113,-80 49,0 74,6 110,42 17,17 28,39 34,63 14,62 -17,123 -73,151 -13,7 -34,13 -53,13zm514 -719l-478 0 0 199 478 0 0 -199zm-724 0l-215 0 0 199 215 0 0 -199zm-444 624l0 -5c0,-25 -28,-45 -54,-33 -18,9 -27,30 -19,50 8,18 29,28 49,20 13,-5 24,-18 24,-32z"/>
 </g>
</svg>
