<?xml version="1.0" encoding="UTF-8"?>
<!DOCTYPE svg PUBLIC "-//W3C//DTD SVG 1.1//EN" "http://www.w3.org/Graphics/SVG/1.1/DTD/svg11.dtd">
<!-- Creator: CorelDRAW X8 -->
<svg xmlns="http://www.w3.org/2000/svg" xml:space="preserve" width="14.1111mm" height="18.0346mm" version="1.1" style="shape-rendering:geometricPrecision; text-rendering:geometricPrecision; image-rendering:optimizeQuality; fill-rule:evenodd; clip-rule:evenodd"
viewBox="0 0 1401 1791"
 xmlns:xlink="http://www.w3.org/1999/xlink">
 <defs>
  <style type="text/css">
   <![CDATA[
    .fil0 {fill:#FE8B00}
   ]]>
  </style>
 </defs>
 <g id="Слой_x0020_1">
  <metadata id="CorelCorpID_0Corel-Layer"/>
  <path class="fil0" d="M682 1658c149,5 216,77 396,-37 225,-141 291,-443 106,-668 -69,-84 -142,-191 -228,-263 70,194 265,356 205,618 -66,288 -277,324 -479,350zm147 -683c-146,105 -91,17 -179,198 -40,-122 -83,-135 -183,-198 83,-68 116,-27 187,-209 33,122 69,144 140,187l35 22zm22 -605c103,163 474,506 531,726 98,379 -201,701 -549,695 -341,-7 -625,-335 -524,-704 22,-84 59,-144 105,-202l437 -515zm-306 143c-64,51 -239,81 -267,303 -54,-206 -106,-214 -278,-294 163,-68 232,-103 273,-292 79,163 92,233 272,283zm332 -310c-105,38 -132,68 -183,176l-70 -109c-27,-28 -82,-50 -130,-70 152,-98 102,-43 198,-200 18,50 27,79 65,119 6,6 33,29 49,40l71 44z"/>
 </g>
</svg>
