<?xml version="1.0" encoding="UTF-8"?>
<!DOCTYPE svg PUBLIC "-//W3C//DTD SVG 1.1//EN" "http://www.w3.org/Graphics/SVG/1.1/DTD/svg11.dtd">
<!-- Creator: CorelDRAW X8 -->
<svg xmlns="http://www.w3.org/2000/svg" xml:space="preserve" width="62.8843mm" height="84.3948mm" version="1.1" style="shape-rendering:geometricPrecision; text-rendering:geometricPrecision; image-rendering:optimizeQuality; fill-rule:evenodd; clip-rule:evenodd"
viewBox="0 0 1703 2286"
 xmlns:xlink="http://www.w3.org/1999/xlink">
 <defs>
  <style type="text/css">
   <![CDATA[
    .fil0 {fill:#282744}
   ]]>
  </style>
 </defs>
 <g id="Слой_x0020_1">
  <metadata id="CorelCorpID_0Corel-Layer"/>
  <path class="fil0" d="M533 640c0,1 1,2 1,2 0,1 0,1 0,2 7,22 -11,28 -12,29 -5,4 -6,23 -24,21 -2,-5 -3,-17 -2,-24 1,-1 1,-2 2,-4l7 -12c0,-1 1,-1 1,-2 1,-5 2,-3 -3,-12l-2 -3c-14,-8 -4,-14 -32,-17 -30,-2 -38,-2 -37,-14 5,-4 8,-3 17,-3 7,1 11,1 17,2 9,2 46,14 51,18 10,9 14,9 16,17zm197 71c8,3 15,8 22,10l8 7c35,37 4,39 -7,80 -18,3 -16,-8 -10,-18 24,-39 -6,-63 -49,-67 -12,-1 -17,0 -24,-5 -1,-9 1,-9 8,-13 11,-5 42,-5 47,-1 4,3 3,2 5,7zm-217 60c7,-5 7,-9 20,-8 46,6 22,4 52,26 0,13 0,13 -10,19 -18,10 -40,15 -58,5 0,-19 -5,-24 -4,-42zm490 200c-5,3 -5,5 -9,11 -9,12 -18,15 -24,26 -4,6 -12,13 -17,18 -4,5 -5,6 -9,9l-25 26c-2,2 -3,3 -5,4l-3 4c-12,14 -12,13 -30,23 -9,5 -17,4 -21,13 -10,-1 -8,3 -16,7 -6,3 -12,2 -18,4 -8,4 2,1 -6,4l-25 8c-13,2 -11,0 -20,4 -6,3 -7,4 -18,4 -15,0 -25,-3 -38,-5 -15,-3 -46,1 -65,-23 -7,-9 -8,-5 -13,-11 -11,-11 1,-32 1,-35 2,-11 2,-9 7,-16 13,-1 28,-1 41,0 21,1 74,-8 120,-6 0,0 0,1 1,1 7,13 9,8 17,18l11 -8c0,-9 -1,-13 2,-20 -7,1 -17,6 -16,-7 1,-5 6,-9 7,-9l11 -9c5,-4 4,-5 10,-9 10,-7 11,-16 23,-18 13,-2 12,9 28,13 11,0 14,3 24,3 -1,-6 -2,-7 -5,-11 -6,-8 -6,-5 -20,-13 -3,-1 -5,-2 -7,-3 -3,-2 -6,-3 -6,-11 -1,-13 11,-19 15,-39 6,-5 9,-7 14,-12 8,-4 39,4 42,4 20,3 13,7 31,-4 -6,-4 -10,-9 -15,-11l-19 -6c-8,-1 -4,6 -21,3 -7,-1 -15,-3 -20,-6l0 -41c0,-13 -5,-3 -4,-38 4,-13 23,-31 26,-41 11,-2 17,-10 20,-18 3,-6 5,-8 6,-12 2,-6 0,-8 4,-13 0,-1 0,-1 1,-1l13 -26c1,-12 1,-7 3,-15l4 -16c3,-15 8,-23 0,-29 -4,-3 -8,-4 -12,-6 -3,-2 -3,-2 -6,-4 -24,-13 -46,-2 -81,-3 -13,18 -26,4 -49,19 -13,8 -44,4 -44,4 -9,-11 -1,-4 -15,-9 -14,-5 -2,-6 -21,-18l-24 -16c-4,-2 -3,-3 -7,-5 -13,-8 -29,-14 -43,-21 -6,-2 -6,-6 -16,-11 -26,-13 -4,-6 -35,-16 -7,-2 -14,-2 -21,-5 -11,-3 -5,-6 -17,-9 -33,-10 -50,-7 -58,-33 -2,-6 -1,-6 -7,-9 -1,-6 -3,-12 -3,-19 -2,-20 -6,-26 -9,-39 -1,-8 1,-13 -2,-21 -2,-6 -5,-9 -7,-16 -9,-29 -8,-15 -15,-32 -1,-5 -4,-11 -7,-14 -3,-8 -7,-7 -19,-3 -28,11 -39,27 -59,45 -6,6 -7,10 -10,16 -10,17 -12,24 -22,30 0,11 2,14 -4,20 -10,9 -4,3 -9,16l-17 34c-9,16 -22,6 -36,14 -28,16 -32,1 -35,16 -20,0 -12,0 -32,-22 -6,-8 -5,-11 -10,-17l-13 -16c-10,-14 -6,0 -19,-23 -4,-8 -14,-15 -19,-23 -10,-14 -18,-13 -17,-3l9 19c1,2 2,2 3,4l14 17c3,4 4,5 7,7 12,11 9,9 13,17 6,12 26,31 27,33 8,11 10,17 7,23 -4,7 -5,8 -7,18 -2,5 -7,13 -10,17 -2,4 -1,2 -2,5 -7,12 -4,2 -8,10 -6,3 -10,9 -13,15 -16,1 -21,-7 -37,-16 -7,-3 -6,-1 -14,-4l-12 -6c-17,-8 -18,-12 -23,-14 -6,-2 -12,-2 -16,2 3,7 5,5 11,8 3,3 6,7 10,9l32 18c1,0 1,0 2,0 11,4 15,7 28,15 4,2 7,5 11,8 1,20 -1,20 6,38 4,10 0,27 -4,36 -25,2 -60,-6 -65,-6 1,21 31,11 44,14 6,3 2,5 10,7 8,1 6,-4 16,0 4,8 5,17 9,25 2,5 3,6 5,11l3 8c8,24 9,4 20,34 3,7 2,8 9,11 0,12 7,4 11,14 1,11 6,12 11,18 4,6 4,15 8,20 1,2 4,4 6,7 7,9 13,24 10,31 -4,5 -7,6 -10,11 -4,5 -5,9 -9,14 -13,20 -12,26 -16,41l-5 21c-2,7 -5,6 -6,15 -2,19 -2,6 -5,14 -1,1 5,13 -2,30 -2,3 -3,6 -3,7 -2,6 -3,32 -11,36 -3,2 -43,-3 -43,-3l-58 -17c-12,-4 -59,-2 -72,-1 -3,4 -1,-1 -3,6 -18,10 -32,27 -42,46 -12,22 -16,22 -16,45 0,9 0,19 0,29 0,17 -1,42 2,55 3,11 5,12 5,26 0,12 2,17 3,27 0,16 4,15 6,24 2,8 0,20 1,28 2,8 3,3 5,12l10 62c3,9 4,-3 4,25 4,3 7,3 7,9l22 65c3,11 5,9 10,17 3,6 12,28 20,36 8,7 20,22 25,32 6,11 5,6 15,14 7,4 6,8 14,12 20,11 51,15 74,13 8,-1 30,-14 38,-25 5,-8 1,-4 10,-9l2 -12 9 -40c1,-23 0,-44 -7,-65 -2,-6 -3,-10 -6,-18 0,-2 -5,-15 -6,-16 -2,-3 -8,-10 -11,-13l-34 -38c-23,-20 -12,-12 -21,-25 -5,-8 -7,-3 -11,-13 -7,-18 -11,-14 -8,-39 10,-1 10,1 17,7 0,0 53,61 54,62 4,5 7,13 11,19 5,9 1,0 13,20 3,5 4,5 8,8 2,2 3,3 4,4 3,2 0,1 4,4 0,0 2,8 3,9l13 21c5,4 9,4 13,10 24,34 24,20 35,36 13,21 18,10 23,24l12 8c10,8 4,7 24,19l36 30c6,7 3,5 11,10 43,24 24,28 47,40 15,8 9,10 23,21l14 19c9,15 5,5 15,16 6,7 13,16 20,23 12,12 4,6 9,13 4,6 -1,1 6,5 11,8 0,7 11,21 9,10 11,24 15,29 4,6 6,3 10,10 14,27 7,16 12,31l13 30c10,25 12,43 10,73 8,7 8,3 7,18 0,13 -2,12 -3,21 -2,7 1,16 -2,24 -1,3 -8,11 -10,12 -3,14 -8,19 -20,30 -6,6 -20,17 -28,21 -10,4 -22,13 -28,21 -11,12 -26,2 -50,35 -5,8 -18,15 -18,43 0,17 1,31 2,47 1,11 4,9 13,16 1,0 1,1 1,1l14 7c0,0 1,-1 1,-1 3,-1 1,-1 5,-1 -2,6 -2,3 -2,11 8,-1 9,-4 15,1 0,2 -1,8 13,10l62 0c31,-1 11,-13 42,-18 9,-1 7,-3 14,-8l25 -15c23,-17 10,-10 22,-20l10 -9c4,-6 6,-8 10,-12 11,-10 4,-5 10,-15 2,-3 2,-2 3,-3 3,-4 2,-1 6,-5l15 -25c1,-2 3,-10 5,-14 1,-3 2,-6 4,-8 6,-10 3,-5 8,-22 3,-9 4,-9 7,-15l13 -68c6,-28 8,-46 6,-77 -1,-6 -2,-8 -2,-16 0,-33 1,-63 -4,-96 -1,-6 -2,-11 -2,-19 -1,-10 1,-9 -3,-16 -6,-12 0,-22 -6,-36 -6,-15 -6,-40 -11,-49 -3,-6 -1,5 -3,-7 0,-4 0,-7 -1,-10 -1,-7 -2,-10 -3,-18 0,-11 -6,-25 -8,-33 -3,-9 1,-10 -5,-17 -6,-9 -3,-1 -6,-14 -4,-15 -8,-22 -11,-30l-10 -31c-17,-30 0,-14 -12,-29 -2,-2 -3,-4 -4,-7 -2,-4 -2,-6 -3,-9 -2,-6 -4,-5 -6,-13 -5,-20 1,-4 -9,-20 -1,-2 -3,-5 -4,-7 -3,-7 -5,-7 -9,-13 -7,-12 1,-5 -16,-25 -9,-11 -16,-12 -17,-28 23,2 27,24 41,36 3,3 -1,1 3,2 0,12 25,53 34,65 6,9 8,25 14,35 6,10 7,27 13,38 12,23 5,21 11,31 3,6 -3,-1 3,3 13,10 51,10 60,12 26,5 15,1 46,1 11,0 14,-2 24,-3 5,-1 18,-2 25,-3 10,-1 17,0 26,-4 9,-4 16,-3 25,-6 26,-10 13,-6 34,-11 20,-6 46,-23 62,-28 3,-1 6,-1 11,-1 5,6 2,5 5,13 4,8 3,0 9,18 2,7 2,3 3,12 2,18 5,9 10,21 13,31 11,19 21,39 3,7 7,8 12,16 5,7 9,11 12,20 3,10 -1,15 -3,24 -20,12 -16,13 -35,32 -2,3 -3,4 -6,7 -4,5 -10,8 -13,13 -5,7 -7,9 -13,14 -19,17 -19,33 -38,44 0,19 -7,30 -8,50 0,15 -1,43 2,54 8,24 7,20 23,35 5,4 10,18 29,25 19,5 77,8 89,-5 8,-7 5,-1 12,-7 2,-1 6,-7 9,-10 3,-4 8,-8 11,-12 -4,-3 -5,-2 -9,-4 3,-7 9,-3 9,-18 1,0 3,0 3,-1 3,-1 2,-1 4,-2 1,-9 1,-6 3,-13 2,-6 2,-11 3,-16 0,-3 0,-4 1,-6l1 -7c3,-8 -2,1 2,-4 0,0 3,-1 5,-4l2 -12c1,-10 8,-18 18,-20 0,-8 0,-7 -2,-13 20,-3 5,2 24,1 7,-12 -2,-1 12,-8 18,-9 23,-4 30,-8 12,-7 -7,-9 17,-7 10,1 3,0 24,-11 9,-5 2,-2 14,-1 5,-12 9,-3 7,-38 -1,-14 -4,-9 -5,-18 -1,-11 3,-16 -16,-31l-18 -16c-6,-6 1,-5 -14,-15 0,0 -1,0 -1,0l-4 -3c-15,-15 -42,-29 -47,-34 -3,-2 -1,0 -3,-3 -9,0 -19,-8 -23,-14 -18,-3 -49,-39 -58,-46 -8,-6 -7,-4 -11,-14 -3,-7 -7,-9 -11,-14 -6,-6 -4,-11 -10,-16 -3,-2 -8,3 -6,-21 19,1 7,12 19,21 16,11 13,13 21,19l40 30c6,5 3,-1 5,8l0 2 26 14c10,7 29,25 37,26 7,4 4,4 11,9 7,4 6,4 11,9 15,18 11,-3 42,38 0,0 1,1 1,1l3 4c11,13 30,44 33,57 2,8 2,9 4,16 5,12 6,43 5,56 0,3 0,6 -1,9 -3,7 -3,4 -7,6 4,15 -4,21 -6,31 -3,14 -15,47 -24,60 -19,31 -14,19 -28,34 -28,28 -46,25 -55,28 -25,9 -21,3 -34,8 -9,4 -8,2 -20,3 -7,1 -8,3 -16,3 -10,2 -7,1 -13,6 -12,8 -20,10 -28,14 -11,5 -14,13 -24,18 -10,5 -4,1 -12,8 -3,4 -8,5 -14,8 -10,5 -11,16 -17,24 -11,13 -4,-7 -17,25 -4,10 -2,27 -2,40 -1,21 8,19 9,33 7,0 5,0 10,-2 -1,10 -5,10 2,20 0,0 1,1 1,1 0,0 0,1 1,1 10,14 24,16 37,25 2,2 -3,0 5,3l20 2c14,1 46,1 58,-2 6,-2 4,-3 8,-7 6,-6 2,-3 12,-4 16,-2 1,-8 22,-9l1 -9c18,0 23,-1 33,-11 13,-11 11,-3 25,-15 11,-8 0,-9 15,-14 8,-2 21,-9 27,-15 4,-3 4,-4 7,-7l19 -16c9,-6 9,0 10,-12 17,0 -2,-1 21,-9 3,-7 7,-5 13,-13 6,-8 4,-6 12,-13 6,-5 21,-22 23,-27 11,-2 5,-1 11,-5 16,-11 4,-2 15,-16 9,-11 24,-18 33,-37 7,-15 24,-20 31,-35 4,-10 6,-6 11,-13 3,-4 5,-7 8,-14 3,-6 7,-9 12,-12 9,-5 3,-2 8,-12 7,-15 21,-27 27,-43 5,-11 3,-5 11,-11 0,-19 3,-10 6,-22 3,-13 -2,-8 9,-16 2,-17 5,-19 5,-29 1,-35 -4,-50 -4,-59 0,-10 -1,-19 -5,-26 -6,-12 -11,-40 -16,-47l-6 -11c-9,-34 -11,-13 -12,-36 -7,-5 -9,-7 -12,-16 -4,-14 -11,-28 -13,-44 -2,-8 -4,-16 -6,-24 -1,-8 1,-17 1,-27 -1,-16 1,-20 3,-32 3,-13 -3,9 1,-3l1 -3c5,-10 6,-24 9,-36 1,-7 6,-13 7,-20l9 -50c1,-4 9,-16 11,-32 1,-5 1,-9 1,-14 2,-9 4,-14 4,-25 1,-14 4,-12 4,-25 -1,-32 4,-40 4,-53 0,-9 -1,-20 -1,-29 1,-23 -7,-29 -4,-52 1,-10 -5,-11 -6,-21 -4,-30 -3,-11 -5,-24 -4,-17 2,-7 -7,-22 -3,-6 -3,-16 -6,-22 -2,-4 -3,-5 -4,-10 -5,-15 -14,-24 -17,-34 -3,-11 -14,-28 -16,-35 -2,-8 -5,-12 -9,-18l-7 -9c-12,-10 -12,-17 -19,-24 -23,-24 -3,-22 15,-42 0,-1 1,-1 1,-1l6 -7c6,-10 2,-13 12,-20 7,-5 12,-8 16,-16 6,-14 15,-23 25,-38 6,-10 9,-24 15,-34l20 -57c4,-29 5,-95 3,-125 0,-6 -1,-8 -4,-12 -5,-9 -2,-11 -12,-35l-13 -36c-7,-11 -1,3 -11,-20 -4,-8 -3,-2 -6,-10 -11,-25 -8,-9 -27,-38l-3 -5c-3,-4 -6,-8 -10,-11l-20 -13c-8,-5 -10,-10 -17,-14l-20 -12c-28,-17 -15,-16 -38,-26l-33 -14c-3,-1 -9,-4 -12,-5 -23,-11 -134,-53 -159,-51 -15,1 -9,0 -22,-2 -44,-7 -86,-8 -135,-14 -11,-2 -10,-5 -19,-7 -7,-1 -18,0 -24,-1 -9,-3 0,-3 -8,-4 -4,-1 -8,0 -12,-1 -8,-1 -4,-1 -9,-4 -6,-2 -37,-9 -45,-17l-18 -20c-4,-5 -3,1 -4,-8 -1,-9 1,-16 5,-22 3,-6 4,-13 9,-17 9,-8 22,-8 30,-19l16 -2c7,1 43,-15 55,-19 15,-5 16,0 25,-10 6,-7 13,-13 19,-18l1 -38c-14,-8 -2,-6 -17,-19 -19,-17 -23,-20 -44,-28 -5,-2 -10,-3 -14,-4 -7,-4 -7,-7 -11,-9l-13 -4c-8,-1 -6,2 -14,3 -5,0 -27,-2 -30,0 -12,8 11,0 -23,14 -15,6 -4,9 -29,10 -4,7 -3,5 -10,7 -10,4 2,1 -18,10 -9,4 -13,9 -19,16 -13,13 -5,8 -20,25 -4,3 -6,6 -9,10l-22 50c0,7 -4,55 -2,62 4,10 0,3 5,6 -1,13 5,42 9,49 12,18 11,27 20,40 3,3 6,8 9,11 21,34 22,23 40,40 26,25 45,21 55,25 10,4 22,7 33,7 11,0 7,1 16,3 12,3 23,1 36,5 13,3 24,0 38,1l35 6c17,1 20,-1 35,4 12,4 23,-1 37,0 6,1 3,0 7,2 9,4 11,5 26,4 13,0 20,3 35,5 10,2 7,4 14,6l37 4 29 10c9,3 6,-1 13,6 5,6 24,13 36,24l24 16c4,3 9,4 13,7 9,7 2,9 18,22 11,9 17,25 25,34 5,7 10,20 12,28 5,14 11,5 12,28 1,17 10,16 5,54 -1,7 -3,9 -4,17 0,7 1,12 0,19 -2,7 -6,23 -11,28 -7,7 -5,2 -9,12 -6,14 -13,9 -25,37 -7,2 -14,19 -18,23 -13,17 -17,13 -25,17l-8 6c-19,10 -10,14 -28,15 -12,0 -16,-2 -25,-3l-111 0c-12,1 -13,4 -25,4 -11,1 -16,-1 -25,3 -11,5 -13,2 -26,3l-22 5c-19,4 -34,14 -43,8 -3,1 -1,5 -21,13 -21,9 -12,8 -22,13 -6,3 -6,1 -11,6 -6,7 -3,3 -10,7l-16 16c-5,5 -12,12 -17,17l-17 17c-3,3 -7,6 -9,9 -3,3 -4,7 -7,10 -3,5 -12,11 -16,15zm154 509c-10,1 -13,-2 -16,-10 -3,-8 -5,-10 -7,-18 -3,-28 -4,-4 -5,-47 -1,-36 2,-24 3,-37 1,-4 0,-6 1,-12 1,-3 1,-9 2,-13 2,-10 8,-19 15,-22l-1 40c-3,27 -5,12 2,39 3,11 0,31 2,44 2,17 10,13 4,36z"/>
 </g>
</svg>
