<?xml version="1.0" encoding="UTF-8"?>
<!DOCTYPE svg PUBLIC "-//W3C//DTD SVG 1.1//EN" "http://www.w3.org/Graphics/SVG/1.1/DTD/svg11.dtd">
<!-- Creator: CorelDRAW X8 -->
<svg xmlns="http://www.w3.org/2000/svg" xml:space="preserve" width="14.1115mm" height="14.1076mm" version="1.1" style="shape-rendering:geometricPrecision; text-rendering:geometricPrecision; image-rendering:optimizeQuality; fill-rule:evenodd; clip-rule:evenodd"
viewBox="0 0 1401 1401"
 xmlns:xlink="http://www.w3.org/1999/xlink">
 <defs>
  <style type="text/css">
   <![CDATA[
    .fil0 {fill:#FE8B00}
   ]]>
  </style>
 </defs>
 <g id="Слой_x0020_1">
  <metadata id="CorelCorpID_0Corel-Layer"/>
  <path class="fil0" d="M506 173c2,24 -8,109 -4,115 1,2 62,68 65,70 79,-18 121,-38 221,-14 90,22 177,85 222,160 17,27 31,55 41,88 16,51 22,120 11,171 -3,17 -10,38 -13,54 75,75 40,41 120,38 29,-2 46,6 70,8 26,-55 44,-21 112,-33 72,-12 50,-203 35,-234 -20,-44 -76,-16 -121,-28 -28,-8 -27,-46 -51,-98 -29,-60 -39,-58 1,-98 61,-61 61,-65 8,-137 -20,-27 -92,-98 -130,-95 -34,3 -62,49 -84,65 -20,15 -36,3 -53,-6 -101,-53 -125,-17 -124,-99 0,-63 2,-82 -59,-93 -45,-8 -91,-10 -137,-2 -61,10 -67,21 -66,85 0,77 -4,59 -64,83zm375 1059c-5,-30 -10,-43 -8,-77 1,-16 9,-60 5,-71 -3,-9 -31,-42 -38,-43 -7,-1 -47,15 -60,18 -221,48 -432,-106 -446,-349 -4,-63 14,-95 21,-136l-70 -66c-14,-10 -37,1 -56,4 -22,3 -38,0 -59,0 -14,65 -27,58 -94,57 -60,0 -64,24 -72,79 -7,46 -5,92 5,137 20,95 128,5 151,74 7,20 13,37 20,56 16,39 50,71 17,102 -61,61 -91,79 7,177 97,96 111,80 178,11 33,-33 44,-9 102,15 19,8 35,13 56,20 72,23 -18,128 72,150 42,11 90,13 136,8 53,-6 83,-10 84,-66 0,-111 1,-71 49,-100zm-112 -321l124 126c14,15 28,20 27,52 -3,85 -39,143 82,233 85,62 225,41 248,0 -28,-24 -78,-51 -113,-75 -43,-28 -35,-91 -7,-134 82,-123 157,-2 239,30 31,-79 -44,-211 -142,-241 -47,-15 -66,-8 -110,3 -28,6 -33,-3 -48,-15 -142,-133 -283,-257 -422,-395 -58,-61 -116,-121 -176,-180 -20,-20 -13,-38 -7,-70 8,-50 3,-104 -28,-143 -24,-31 -59,-63 -97,-79 -23,-9 -46,-15 -73,-16 -28,-2 -56,2 -82,8 -31,8 -48,11 -55,31 11,11 44,30 58,39 17,11 42,25 57,37 42,34 33,92 5,133 -83,125 -170,-7 -239,-29 -36,76 70,286 233,243 63,-16 47,-4 84,27 157,142 289,270 442,415z"/>
 </g>
</svg>
